<svg width="82" height="106" viewBox="0 0 82 106" fill="none" xmlns="http://www.w3.org/2000/svg">
<path d="M34.9421 61.3977C30.166 65.8799 26.1903 71.6334 26.4886 72.6811C26.7868 73.7289 27.6901 74.145 27.6901 74.145L29.1617 75.0077L30.6638 75.8805L32.45 76.8954L34.0976 77.6262C34.0976 77.6262 34.5036 77.8088 35.5846 78.1789C36.6657 78.549 35.18 73.2382 37.0018 68.2781C38.3002 64.743 40.542 59.6434 49.2639 61.461C57.9857 63.2786 64.5592 56.5645 66.1103 53.5252C63.1113 54.5891 60.7403 56.1484 56.5607 54.6132C45.9481 50.3688 43.4504 52.8295 42.6594 53.4051C42.6072 51.6536 41.416 48.2586 39.5026 46.6156C31.571 39.8046 29.5532 38.1973 27.9935 34.1597C24.3832 41.1489 28.8115 48.8963 31.477 51.8964C35.4827 56.1394 35.7831 59.1081 34.9421 61.3977Z" fill="#A7CBEC"/>
<g style="mix-blend-mode:screen">
<path d="M81.6016 97.5237C81.6016 102.087 63.4691 105.786 41.1016 105.786C18.734 105.786 0.601562 102.087 0.601562 97.5237C0.601562 92.9607 18.734 89.2617 41.1016 89.2617C63.4691 89.2617 81.6016 92.9607 81.6016 97.5237Z" fill="url(#paint0_radial_3539_5117)" fill-opacity="0.5"/>
</g>
<path d="M31.8397 81.1959L9.83789 75.6057L18.0329 87.605L27.332 93.7412L42.9116 96.8749L56.7285 93.0841L69.7858 80.2962L74.4759 67.8319L68.6006 64.9609L57.1236 65.7798L48.645 70.4198L31.8397 81.1959Z" fill="#A7CBEC"/>
<path d="M60.0572 42.2825C60.0572 44.4298 58.3165 46.1705 56.1692 46.1705C54.022 46.1705 52.2812 44.4298 52.2812 42.2825C52.2812 40.1352 54.022 38.3945 56.1692 38.3945C58.3165 38.3945 60.0572 40.1352 60.0572 42.2825Z" fill="white"/>
<path d="M53.2512 33.4547C53.2512 34.5731 52.3445 35.4797 51.2262 35.4797C50.1078 35.4797 49.2012 34.5731 49.2012 33.4547C49.2012 32.3363 50.1078 31.4297 51.2262 31.4297C52.3445 31.4297 53.2512 32.3363 53.2512 33.4547Z" fill="#A7CBEC"/>
<path d="M11.1309 74.1913C23.098 82.5231 36.9757 82.7169 44.2232 74.1913C39.3494 70.3598 24.7912 65.3039 11.1309 74.1913Z" fill="white"/>
<path fill-rule="evenodd" clip-rule="evenodd" d="M60.8883 66.8835C55.3704 67.6982 49.4733 70.1886 45.2345 75.1643C37.3103 84.4661 22.507 83.9415 10.2155 75.402L8.53906 74.2373L10.2514 73.1257C17.4058 68.481 24.8074 67.4785 31.0432 68.1387C36.502 68.7167 41.1292 70.5754 43.9807 72.4432C48.6657 67.4753 54.8263 65.003 60.4846 64.1677C63.4916 63.7237 66.3887 63.7364 68.8959 64.096C71.3798 64.4523 73.5794 65.1636 75.1211 66.1959L73.5845 68.4747C72.5111 67.7559 70.7585 67.137 68.5034 66.8135C66.2718 66.4934 63.6432 66.4768 60.8883 66.8835ZM42.0911 74.4984C39.6127 72.9724 35.5816 71.3802 30.7521 70.8688C25.5743 70.3206 19.5438 71.0217 13.5852 74.3259C24.212 80.8833 35.5875 80.7838 42.0911 74.4984Z" fill="white"/>
<path fill-rule="evenodd" clip-rule="evenodd" d="M41.1829 94.7735C58.5883 94.7735 72.6981 80.6497 72.6981 63.2272C72.6981 54.7507 67.9587 46.927 60.9671 37.06C60.0521 35.7686 59.103 34.4478 58.1296 33.0929C52.6743 25.5004 46.4521 16.8404 41.139 6.30609C35.8331 16.5133 29.7915 24.9758 24.4801 32.4155C23.3535 33.9936 22.2597 35.5257 21.2128 37.0186C14.3001 46.8761 9.66773 54.7335 9.66773 63.2272C9.66773 80.6497 23.7776 94.7735 41.1829 94.7735ZM39.632 3.21234C34.2181 14.0383 27.9019 22.8883 22.2711 30.7777C13.8241 42.6132 6.91992 52.2869 6.91992 63.2272C6.91992 82.1687 22.26 97.524 41.1829 97.524C60.1059 97.524 75.4459 82.1687 75.4459 63.2272C75.4459 52.4886 68.628 42.9964 60.3446 31.464C54.566 23.4188 48.0741 14.3806 42.6864 3.23359C42.1747 2.17506 41.6731 1.09752 41.1829 0C40.6754 1.09005 40.158 2.16053 39.632 3.21234Z" fill="#A7CBEC"/>
<path d="M27.453 79.5374C17.4592 79.5374 13.1924 74.9497 9.99805 72.4847C15.5426 92.9582 36.6254 95.971 42.1699 96.5188C47.7144 97.0666 61.9521 90.2877 67.1544 84.0567C71.3162 79.0718 72.9042 69.4719 73.178 65.295C63.5265 60.8883 50.1786 65.295 44.9764 71.0467C40.4482 76.0532 37.4468 79.5374 27.453 79.5374Z" fill="#A7CBEC"/>
<path fill-rule="evenodd" clip-rule="evenodd" d="M57.4822 64.337C52.2867 65.6055 47.6531 68.1417 45.0582 71.0068C44.9908 71.0812 44.9237 71.1554 44.8569 71.2292C42.6779 73.6363 40.8208 75.6878 38.3157 77.1474C35.7314 78.6532 32.4628 79.5264 27.4471 79.5264C22.4283 79.5264 18.8445 78.3758 16.1137 76.9144C14.0308 75.7996 12.4433 74.5029 11.0991 73.405C10.7426 73.1138 10.4031 72.8366 10.0761 72.5804C12.8799 82.6793 19.4914 88.4876 26.1063 91.8427C32.7659 95.2204 39.4269 96.1101 42.2017 96.3839C43.5773 96.5196 45.5004 96.2016 47.6983 95.546C49.8944 94.8909 52.3581 93.901 54.8119 92.6988C59.7217 90.2935 64.5819 87.0437 67.1794 83.9366C69.2551 81.4538 70.6924 77.8163 71.645 74.2716C72.5901 70.7551 73.056 67.3378 73.1968 65.2474C68.3879 63.0703 62.6615 63.0724 57.4822 64.337ZM57.4496 64.2039C62.6641 62.9307 68.4428 62.9291 73.2969 65.1424L73.3399 65.162L73.3368 65.2092C73.1994 67.3033 72.7323 70.7546 71.7775 74.3072C70.8232 77.8583 69.3795 81.5187 67.2847 84.0245C64.669 87.1532 59.7887 90.4133 54.8723 92.8219C52.4131 94.0266 49.9423 95.0196 47.7375 95.6773C45.5347 96.3344 43.5908 96.6587 42.1882 96.5203C39.4069 96.2459 32.7262 95.354 26.0442 91.9649C19.3606 88.575 12.6736 82.6854 9.88924 72.4177L9.83594 72.2212L9.99735 72.3456C10.3787 72.6395 10.7744 72.9627 11.1924 73.3041C12.5353 74.4008 14.1086 75.6858 16.1785 76.7935C18.8896 78.2444 22.4511 79.3894 27.4471 79.3894C32.4462 79.3894 35.689 78.5192 38.2466 77.029C40.733 75.5803 42.5771 73.5432 44.7614 71.1303C44.8261 71.0588 44.8912 70.987 44.9565 70.9148C47.5748 68.0238 52.2358 65.4769 57.4496 64.2039Z" fill="#A7CBEC"/>
<defs>
<radialGradient id="paint0_radial_3539_5117" cx="0" cy="0" r="1" gradientUnits="userSpaceOnUse" gradientTransform="translate(39.2584 97.5678) rotate(90) scale(8.21789 40.2838)">
<stop stop-color="white"/>
<stop offset="1" stop-opacity="0"/>
</radialGradient>
</defs>
</svg>
