<svg width="107" height="107" viewBox="0 0 107 107" fill="none" xmlns="http://www.w3.org/2000/svg">
<path d="M47.3406 62.3977C42.5645 66.8799 38.5888 72.6334 38.887 73.6811C39.1853 74.7289 40.0885 75.145 40.0885 75.145L41.5602 76.0077L43.0622 76.8805L44.8485 77.8954L46.496 78.6262C46.496 78.6262 46.902 78.8088 47.9831 79.1789C49.0641 79.549 47.5784 74.2382 49.4002 69.2781C50.6986 65.743 52.9405 60.6434 61.6623 62.461C70.3842 64.2786 76.9577 57.5645 78.5087 54.5252C75.5097 55.5891 73.1387 57.1484 68.9591 55.6132C58.3466 51.3688 55.8489 53.8295 55.0579 54.4051C55.0057 52.6536 53.8144 49.2586 51.9011 47.6156C43.9695 40.8046 41.9516 39.1973 40.392 35.1597C36.7816 42.1489 41.21 49.8963 43.8754 52.8964C47.8811 57.1394 48.1815 60.1081 47.3406 62.3977Z" fill="#A7CBEC"/>
<g style="mix-blend-mode:screen">
<path d="M94 98.5237C94 103.087 75.8675 106.786 53.5 106.786C31.1325 106.786 13 103.087 13 98.5237C13 93.9607 31.1325 90.2617 53.5 90.2617C75.8675 90.2617 94 93.9607 94 98.5237Z" fill="url(#paint0_radial_3684_9172)" fill-opacity="0.5"/>
</g>
<path d="M44.2382 82.1959L22.2363 76.6057L30.4313 88.605L39.7304 94.7412L55.31 97.8749L69.127 94.0841L82.1842 81.2962L86.8743 68.8319L80.9991 65.9609L69.522 66.7798L61.0434 71.4198L44.2382 82.1959Z" fill="#A7CBEC"/>
<path d="M72.4557 43.2825C72.4557 45.4298 70.715 47.1705 68.5677 47.1705C66.4204 47.1705 64.6797 45.4298 64.6797 43.2825C64.6797 41.1352 66.4204 39.3945 68.5677 39.3945C70.715 39.3945 72.4557 41.1352 72.4557 43.2825Z" fill="white"/>
<path d="M65.6496 34.4547C65.6496 35.5731 64.743 36.4797 63.6246 36.4797C62.5062 36.4797 61.5996 35.5731 61.5996 34.4547C61.5996 33.3363 62.5062 32.4297 63.6246 32.4297C64.743 32.4297 65.6496 33.3363 65.6496 34.4547Z" fill="#A7CBEC"/>
<path d="M23.5293 75.1913C35.4964 83.5231 49.3741 83.7169 56.6216 75.1913C51.7479 71.3598 37.1897 66.3039 23.5293 75.1913Z" fill="white"/>
<path fill-rule="evenodd" clip-rule="evenodd" d="M73.2868 67.8835C67.7689 68.6982 61.8717 71.1886 57.6329 76.1643C49.7088 85.4661 34.9054 84.9415 22.6139 76.402L20.9375 75.2373L22.6498 74.1257C29.8042 69.481 37.2059 68.4785 43.4416 69.1387C48.9004 69.7167 53.5277 71.5754 56.3792 73.4432C61.0642 68.4753 67.2248 66.003 72.883 65.1677C75.8901 64.7237 78.7871 64.7364 81.2944 65.096C83.7782 65.4523 85.9778 66.1636 87.5195 67.1959L85.9829 69.4747C84.9095 68.7559 83.1569 68.137 80.9019 67.8135C78.6702 67.4934 76.0417 67.4768 73.2868 67.8835ZM54.4896 75.4984C52.0111 73.9724 47.9801 72.3802 43.1506 71.8688C37.9727 71.3206 31.9422 72.0217 25.9837 75.3259C36.6104 81.8833 47.986 81.7838 54.4896 75.4984Z" fill="white"/>
<path fill-rule="evenodd" clip-rule="evenodd" d="M53.5814 95.7735C70.9867 95.7735 85.0966 81.6497 85.0966 64.2272C85.0966 55.7507 80.3571 47.927 73.3656 38.06C72.4505 36.7686 71.5015 35.4478 70.528 34.0929C65.0727 26.5004 58.8505 17.8404 53.5374 7.30609C48.2315 17.5133 42.19 25.9758 36.8786 33.4155C35.7519 34.9936 34.6582 36.5257 33.6112 38.0186C26.6986 47.8761 22.0662 55.7335 22.0662 64.2272C22.0662 81.6497 36.176 95.7735 53.5814 95.7735ZM52.0304 4.21234C46.6166 15.0383 40.3003 23.8883 34.6696 31.7777C26.2225 43.6132 19.3184 53.2869 19.3184 64.2272C19.3184 83.1687 34.6584 98.524 53.5814 98.524C72.5043 98.524 87.8444 83.1687 87.8444 64.2272C87.8444 53.4886 81.0264 43.9964 72.7431 32.464C66.9644 24.4188 60.4725 15.3806 55.0848 4.23359C54.5732 3.17506 54.0715 2.09752 53.5814 1C53.0739 2.09005 52.5564 3.16053 52.0304 4.21234Z" fill="#A7CBEC"/>
<path d="M39.8514 80.5374C29.8576 80.5374 25.5909 75.9497 22.3965 73.4847C27.941 93.9582 49.0238 96.971 54.5683 97.5188C60.1128 98.0666 74.3506 91.2877 79.5528 85.0567C83.7146 80.0718 85.3027 70.4719 85.5765 66.295C75.9249 61.8883 62.577 66.295 57.3748 72.0467C52.8466 77.0532 49.8452 80.5374 39.8514 80.5374Z" fill="#A7CBEC"/>
<path fill-rule="evenodd" clip-rule="evenodd" d="M69.8806 65.337C64.6851 66.6055 60.0515 69.1417 57.4567 72.0068C57.3892 72.0812 57.3221 72.1554 57.2553 72.2292C55.0763 74.6363 53.2193 76.6878 50.7142 78.1474C48.1298 79.6532 44.8613 80.5264 39.8455 80.5264C34.8267 80.5264 31.2429 79.3758 28.5122 77.9144C26.4292 76.7996 24.8417 75.5029 23.4975 74.405C23.141 74.1138 22.8016 73.8366 22.4746 73.5804C25.2783 83.6793 31.8898 89.4876 38.5047 92.8427C45.1644 96.2204 51.8253 97.1101 54.6002 97.3839C55.9757 97.5196 57.8988 97.2016 60.0967 96.546C62.2928 95.8909 64.7565 94.901 67.2104 93.6988C72.1202 91.2935 76.9803 88.0437 79.5778 84.9366C81.6536 82.4538 83.0909 78.8163 84.0435 75.2716C84.9885 71.7551 85.4544 68.3378 85.5952 66.2474C80.7863 64.0703 75.0599 64.0724 69.8806 65.337ZM69.848 65.2039C75.0625 63.9307 80.8412 63.9291 85.6953 66.1424L85.7384 66.162L85.7353 66.2092C85.5978 68.3033 85.1307 71.7546 84.176 75.3072C83.2216 78.8583 81.778 82.5187 79.6831 85.0245C77.0675 88.1532 72.1872 91.4133 67.2708 93.8219C64.8115 95.0266 62.3407 96.0196 60.136 96.6773C57.9331 97.3344 55.9892 97.6587 54.5867 97.5203C51.8053 97.2459 45.1246 96.354 38.4426 92.9649C31.759 89.575 25.072 83.6854 22.2877 73.4177L22.2344 73.2212L22.3958 73.3456C22.7772 73.6395 23.1729 73.9627 23.5909 74.3041C24.9337 75.4008 26.507 76.6858 28.577 77.7935C31.288 79.2444 34.8496 80.3894 39.8455 80.3894C44.8446 80.3894 48.0874 79.5192 50.645 78.029C53.1314 76.5803 54.9756 74.5432 57.1599 72.1303C57.2246 72.0588 57.2896 71.987 57.3549 71.9148C59.9733 69.0238 64.6343 66.4769 69.848 65.2039Z" fill="#A7CBEC"/>
<defs>
<radialGradient id="paint0_radial_3684_9172" cx="0" cy="0" r="1" gradientUnits="userSpaceOnUse" gradientTransform="translate(51.6568 98.5678) rotate(90) scale(8.21789 40.2838)">
<stop stop-color="white"/>
<stop offset="1" stop-color="white" stop-opacity="0"/>
</radialGradient>
</defs>
</svg>
