<svg width="90" height="141" viewBox="0 0 90 141" fill="none" xmlns="http://www.w3.org/2000/svg">
<path d="M6.30737 106.349C7.33857 106.349 8.24963 106.599 9.04056 107.098C9.84149 107.587 10.4572 108.271 10.8877 109.15C11.3282 110.029 11.5485 111.022 11.5485 112.131C11.5485 113.269 11.2131 114.322 10.5423 115.291C9.88154 116.25 9.05558 117.013 8.06442 117.583C7.08327 118.142 6.14217 118.421 5.24112 118.421C4.78058 118.421 4.31504 118.396 3.84449 118.347C3.07359 118.297 2.47789 118.272 2.0574 118.272H0.150175V117.807L1.56182 116.699V107.592L0 107.083L0.300351 106.484H2.04239C2.9935 106.484 3.91958 106.454 4.82063 106.394C5.50143 106.354 5.997 106.334 6.30737 106.334V106.349ZM5.66161 117.313C6.38245 117.313 7.03822 117.123 7.62891 116.744C8.2196 116.354 8.68014 115.82 9.01052 115.141C9.35092 114.452 9.52112 113.683 9.52112 112.835C9.52112 111.816 9.36093 110.892 9.04056 110.064C8.72018 109.225 8.22961 108.556 7.56884 108.057C6.91808 107.557 6.10713 107.308 5.136 107.308C4.52529 107.308 3.95963 107.487 3.43902 107.847V116.939C4.04973 117.188 4.79059 117.313 5.66161 117.313Z" fill="white"/>
<path d="M17.8059 118.257H13.2405V117.792L14.6522 116.684V107.607L13.0904 107.083L13.3907 106.484H17.956V106.948L16.5294 108.057V117.118L18.1062 117.658L17.8059 118.257Z" fill="white"/>
<path d="M25.6539 106.349C26.6852 106.349 27.5962 106.599 28.3871 107.098C29.1881 107.587 29.8038 108.271 30.2343 109.15C30.6748 110.029 30.8951 111.022 30.8951 112.131C30.8951 113.269 30.5597 114.322 29.8889 115.291C29.2281 116.25 28.4022 117.013 27.411 117.583C26.4299 118.142 25.4888 118.421 24.5877 118.421C24.1272 118.421 23.6616 118.396 23.1911 118.347C22.4202 118.297 21.8245 118.272 21.404 118.272H19.4968V117.807L20.9084 116.699V107.592L19.3466 107.083L19.6469 106.484H21.389C22.3401 106.484 23.2662 106.454 24.1672 106.394C24.848 106.354 25.3436 106.334 25.6539 106.334V106.349ZM25.0082 117.313C25.729 117.313 26.3848 117.123 26.9755 116.744C27.5662 116.354 28.0267 115.82 28.3571 115.141C28.6975 114.452 28.8677 113.683 28.8677 112.835C28.8677 111.816 28.7075 110.892 28.3871 110.064C28.0668 109.225 27.5762 108.556 26.9154 108.057C26.2647 107.557 25.4537 107.308 24.4826 107.308C23.8719 107.308 23.3062 107.487 22.7856 107.847V116.939C23.3963 117.188 24.1372 117.313 25.0082 117.313Z" fill="white"/>
<path d="M44.451 118.257H39.8856V117.792L41.2973 116.699L40.1409 113.928H35.095L33.8636 116.759L36.5067 117.658L36.2063 118.257H31.641V117.792L33.0527 116.684L37.3026 106.963L38.8645 106.199L43.2496 116.744L44.7513 117.658L44.451 118.257ZM37.6781 107.997L35.3954 113.254H39.8706L37.6781 107.997Z" fill="white"/>
<path d="M51.556 106.349C52.5872 106.349 53.4983 106.599 54.2892 107.098C55.0902 107.587 55.7059 108.271 56.1364 109.15C56.5769 110.029 56.7972 111.022 56.7972 112.131C56.7972 113.269 56.4618 114.322 55.791 115.291C55.1302 116.25 54.3042 117.013 53.3131 117.583C52.3319 118.142 51.3908 118.421 50.4898 118.421C50.0293 118.421 49.5637 118.396 49.0932 118.347C48.3223 118.297 47.7266 118.272 47.3061 118.272H45.3988V117.807L46.8105 116.699V107.592L45.2487 107.083L45.549 106.484H47.291C48.2422 106.484 49.1682 106.454 50.0693 106.394C50.7501 106.354 51.2457 106.334 51.556 106.334V106.349ZM50.9103 117.313C51.6311 117.313 52.2869 117.123 52.8776 116.744C53.4683 116.354 53.9288 115.82 54.2592 115.141C54.5996 114.452 54.7698 113.683 54.7698 112.835C54.7698 111.816 54.6096 110.892 54.2892 110.064C53.9688 109.225 53.4783 108.556 52.8175 108.057C52.1667 107.557 51.3558 107.308 50.3847 107.308C49.774 107.308 49.2083 107.487 48.6877 107.847V116.939C49.2984 117.188 50.0393 117.313 50.9103 117.313Z" fill="white"/>
<path d="M63.0545 118.257H58.4892V117.792L59.9009 116.684V107.607L58.339 107.083L58.6394 106.484H63.2047V106.948L61.778 108.057V117.118L63.3549 117.658L63.0545 118.257Z" fill="white"/>
<path d="M70.9026 106.349C71.9338 106.349 72.8449 106.599 73.6358 107.098C74.4367 107.587 75.0525 108.271 75.483 109.15C75.9235 110.029 76.1437 111.022 76.1437 112.131C76.1437 113.269 75.8083 114.322 75.1376 115.291C74.4768 116.25 73.6508 117.013 72.6597 117.583C71.6785 118.142 70.7374 118.421 69.8364 118.421C69.3758 118.421 68.9103 118.396 68.4397 118.347C67.6688 118.297 67.0731 118.272 66.6526 118.272H64.7454V117.807L66.1571 116.699V107.592L64.5952 107.083L64.8956 106.484H66.6376C67.5887 106.484 68.5148 106.454 69.4159 106.394C70.0967 106.354 70.5922 106.334 70.9026 106.334V106.349ZM70.2569 117.313C70.9777 117.313 71.6335 117.123 72.2242 116.744C72.8148 116.354 73.2754 115.82 73.6058 115.141C73.9462 114.452 74.1164 113.683 74.1164 112.835C74.1164 111.816 73.9562 110.892 73.6358 110.064C73.3154 109.225 72.8249 108.556 72.1641 108.057C71.5133 107.557 70.7024 107.308 69.7312 107.308C69.1205 107.308 68.5549 107.487 68.0343 107.847V116.939C68.645 117.188 69.3858 117.313 70.2569 117.313Z" fill="white"/>
<path d="M89.6996 118.257H85.1343V117.792L86.546 116.699L85.3896 113.928H80.3437L79.1123 116.759L81.7554 117.658L81.455 118.257H76.8897V117.792L78.3013 116.684L82.5513 106.963L84.1131 106.199L88.4982 116.744L90 117.658L89.6996 118.257ZM82.9267 107.997L80.6441 113.254H85.1193L82.9267 107.997Z" fill="white"/>
<path d="M8.35637 137.442H5.37825V137.141L6.29911 136.43L5.54479 134.63H2.25318L1.44987 136.469L3.17405 137.053L2.97812 137.442H0V137.141L0.920866 136.42L3.69326 130.106L4.71209 129.609L7.57265 136.459L8.5523 137.053L8.35637 137.442ZM3.93817 130.777L2.44911 134.192H5.36845L3.93817 130.777Z" fill="white"/>
<path d="M22.3566 139.291C21.3378 139.771 20.6357 140.011 20.2504 140.011C20.0088 140.011 19.6365 139.755 19.1336 139.242C18.6372 138.736 18.0723 138.117 17.4388 137.384C17.0012 137.552 16.5833 137.637 16.1849 137.637C15.4926 137.637 14.8787 137.475 14.3431 137.15C13.8141 136.819 13.4027 136.362 13.1088 135.778C12.8149 135.194 12.6679 134.533 12.6679 133.793C12.6679 133.034 12.89 132.334 13.3341 131.692C13.7782 131.043 14.3301 130.534 14.9897 130.164C15.6493 129.788 16.2796 129.6 16.8804 129.6C17.5727 129.6 18.1833 129.765 18.7124 130.096C19.2479 130.427 19.6626 130.884 19.9565 131.468C20.2504 132.052 20.3973 132.713 20.3973 133.453C20.3973 134.199 20.1818 134.89 19.7508 135.525C19.3197 136.161 18.7744 136.67 18.1148 137.053C18.7287 137.514 19.3034 137.929 19.8389 138.298C20.381 138.668 20.7108 138.853 20.8284 138.853H22.1509L22.3566 139.291ZM14.0003 133.326C14.0003 133.962 14.1015 134.546 14.304 135.078C14.5064 135.603 14.8134 136.025 15.2248 136.343C15.6428 136.66 16.1555 136.819 16.7629 136.819C17.1939 136.819 17.5858 136.696 17.9384 136.45C18.2976 136.197 18.5785 135.85 18.7809 135.409C18.9834 134.961 19.0846 134.461 19.0846 133.91C19.0846 133.268 18.9834 132.684 18.7809 132.159C18.5785 131.627 18.2715 131.205 17.8601 130.894C17.4486 130.576 16.9359 130.417 16.322 130.417C15.891 130.417 15.4959 130.543 15.1367 130.796C14.784 131.043 14.5064 131.39 14.304 131.838C14.1015 132.279 14.0003 132.775 14.0003 133.326Z" fill="white"/>
<path d="M32.0817 130.816V134.426C32.0817 135.107 31.9151 135.691 31.5821 136.177C31.2555 136.664 30.8506 137.03 30.3673 137.277C29.884 137.517 29.4105 137.637 28.9468 137.637C28.3655 137.637 27.8431 137.51 27.3794 137.257C26.9222 136.998 26.563 136.644 26.3018 136.197C26.0471 135.743 25.9197 135.233 25.9197 134.669V130.524L24.9009 130.183L25.0968 129.794H28.0749V130.096L27.1443 130.816V134.202C27.1443 135.026 27.3467 135.668 27.7516 136.129C28.1631 136.589 28.7835 136.819 29.613 136.819C29.9199 136.819 30.2203 136.722 30.5142 136.528C30.8147 136.326 31.0596 136.035 31.249 135.652C31.4449 135.269 31.5429 134.818 31.5429 134.299V130.689L30.524 130.183L30.72 129.794H33.0123V130.096L32.0817 130.816Z" fill="white"/>
<path d="M45.0662 137.442H42.0881V137.141L43.009 136.43L42.2547 134.63H38.9631L38.1597 136.469L39.8839 137.053L39.688 137.442H36.7099V137.141L37.6307 136.42L40.4031 130.106L41.422 129.609L44.2825 136.459L45.2622 137.053L45.0662 137.442ZM40.648 130.777L39.159 134.192H42.0783L40.648 130.777Z" fill="white"/>
<path d="M56.4313 137.462H54.6091L52.4539 134.007L51.9935 133.677L52.1404 133.385H52.689C53.1331 133.385 53.4825 133.274 53.7372 133.054C53.9985 132.827 54.1291 132.519 54.1291 132.129C54.1291 131.617 53.9854 131.192 53.6981 130.855C53.4107 130.511 52.9927 130.339 52.4441 130.339C52.0784 130.339 51.742 130.446 51.4351 130.66V136.722L52.4637 137.072L52.2678 137.462H49.2897V137.16L50.2105 136.44V130.524L49.1917 130.193L49.3876 129.804H50.524C51.1183 129.804 51.7028 129.784 52.2776 129.746C52.6956 129.72 53.0058 129.707 53.2082 129.707C53.6458 129.707 54.0344 129.794 54.374 129.969C54.7201 130.145 54.9847 130.381 55.1675 130.68C55.3569 130.978 55.4516 131.306 55.4516 131.662C55.4516 131.987 55.3504 132.298 55.1479 132.597C54.9455 132.888 54.6777 133.145 54.3446 133.365C54.0181 133.579 53.6719 133.741 53.3062 133.852L53.943 134.066L55.4614 136.498L56.6272 137.072L56.4313 137.462Z" fill="white"/>
<path d="M63.6081 137.442H60.63V137.141L61.5508 136.42V130.524L60.532 130.183L60.7279 129.794H63.706V130.096L62.7754 130.816V136.703L63.804 137.053L63.6081 137.442Z" fill="white"/>
<path d="M75.2913 130.816V134.426C75.2913 135.107 75.1247 135.691 74.7916 136.177C74.4651 136.664 74.0602 137.03 73.5769 137.277C73.0936 137.517 72.6201 137.637 72.1564 137.637C71.5751 137.637 71.0527 137.51 70.589 137.257C70.1318 136.998 69.7726 136.644 69.5114 136.197C69.2566 135.743 69.1293 135.233 69.1293 134.669V130.524L68.1105 130.183L68.3064 129.794H71.2845V130.096L70.3539 130.816V134.202C70.3539 135.026 70.5563 135.668 70.9612 136.129C71.3727 136.589 71.9931 136.819 72.8225 136.819C73.1295 136.819 73.4299 136.722 73.7238 136.528C74.0242 136.326 74.2692 136.035 74.4586 135.652C74.6545 135.269 74.7524 134.818 74.7524 134.299V130.689L73.7336 130.183L73.9296 129.794H76.2219V130.096L75.2913 130.816Z" fill="white"/>
<path d="M89.8041 137.452H86.826V137.15L87.7468 136.43V131.049L85.1312 137.452H84.5924L81.9963 130.981V136.547L83.0249 137.063L82.829 137.452H80.5366V137.15L81.4575 136.43V130.728L80.4387 130.183L80.6346 129.794H82.7604L85.2095 135.905L87.6489 129.794H89.902V130.096L88.9714 130.816V136.703L90 137.063L89.8041 137.452Z" fill="white"/>
<path fill-rule="evenodd" clip-rule="evenodd" d="M90 124.829H0V124.199H90V124.829Z" fill="#FFFAFA"/>
<path d="M37.9421 61.3977C33.166 65.8799 29.1903 71.6334 29.4886 72.6811C29.7868 73.7289 30.6901 74.145 30.6901 74.145L32.1617 75.0077L33.6638 75.8805L35.45 76.8954L37.0976 77.6262C37.0976 77.6262 37.5036 77.8088 38.5846 78.1789C39.6657 78.549 38.18 73.2382 40.0018 68.2781C41.3002 64.743 43.542 59.6434 52.2639 61.461C60.9857 63.2786 67.5592 56.5645 69.1103 53.5252C66.1113 54.5891 63.7403 56.1484 59.5607 54.6132C48.9481 50.3688 46.4504 52.8295 45.6594 53.4051C45.6072 51.6536 44.416 48.2586 42.5026 46.6156C34.571 39.8046 32.5532 38.1973 30.9935 34.1597C27.3832 41.1489 31.8115 48.8963 34.477 51.8964C38.4827 56.1394 38.7831 59.1081 37.9421 61.3977Z" fill="#A7CBEC"/>
<g style="mix-blend-mode:screen">
<path d="M84.6016 97.5237C84.6016 102.087 66.4691 105.786 44.1016 105.786C21.734 105.786 3.60156 102.087 3.60156 97.5237C3.60156 92.9607 21.734 89.2617 44.1016 89.2617C66.4691 89.2617 84.6016 92.9607 84.6016 97.5237Z" fill="url(#paint0_radial_3539_5112)" fill-opacity="0.5"/>
</g>
<path d="M34.8397 81.1959L12.8379 75.6057L21.0329 87.605L30.332 93.7412L45.9116 96.8749L59.7285 93.0841L72.7858 80.2962L77.4759 67.8319L71.6006 64.9609L60.1236 65.7798L51.645 70.4198L34.8397 81.1959Z" fill="#A7CBEC"/>
<path d="M63.0572 42.2825C63.0572 44.4298 61.3165 46.1705 59.1692 46.1705C57.022 46.1705 55.2812 44.4298 55.2812 42.2825C55.2812 40.1352 57.022 38.3945 59.1692 38.3945C61.3165 38.3945 63.0572 40.1352 63.0572 42.2825Z" fill="white"/>
<path d="M56.2512 33.4547C56.2512 34.5731 55.3445 35.4797 54.2262 35.4797C53.1078 35.4797 52.2012 34.5731 52.2012 33.4547C52.2012 32.3363 53.1078 31.4297 54.2262 31.4297C55.3445 31.4297 56.2512 32.3363 56.2512 33.4547Z" fill="#A7CBEC"/>
<path d="M14.1309 74.1913C26.098 82.5231 39.9757 82.7169 47.2232 74.1913C42.3494 70.3598 27.7912 65.3039 14.1309 74.1913Z" fill="white"/>
<path fill-rule="evenodd" clip-rule="evenodd" d="M63.8883 66.8835C58.3704 67.6982 52.4733 70.1886 48.2345 75.1643C40.3103 84.4661 25.507 83.9415 13.2155 75.402L11.5391 74.2373L13.2514 73.1257C20.4058 68.481 27.8074 67.4785 34.0432 68.1387C39.502 68.7167 44.1292 70.5754 46.9807 72.4432C51.6657 67.4753 57.8263 65.003 63.4846 64.1677C66.4916 63.7237 69.3887 63.7364 71.8959 64.096C74.3798 64.4523 76.5794 65.1636 78.1211 66.1959L76.5845 68.4747C75.5111 67.7559 73.7585 67.137 71.5034 66.8135C69.2718 66.4934 66.6432 66.4768 63.8883 66.8835ZM45.0911 74.4984C42.6127 72.9724 38.5816 71.3802 33.7521 70.8688C28.5743 70.3206 22.5438 71.0217 16.5852 74.3259C27.212 80.8833 38.5875 80.7838 45.0911 74.4984Z" fill="white"/>
<path fill-rule="evenodd" clip-rule="evenodd" d="M44.1829 94.7735C61.5883 94.7735 75.6981 80.6497 75.6981 63.2272C75.6981 54.7507 70.9587 46.927 63.9671 37.06C63.0521 35.7686 62.103 34.4478 61.1296 33.0929C55.6743 25.5004 49.4521 16.8404 44.139 6.30609C38.8331 16.5133 32.7915 24.9758 27.4801 32.4155C26.3535 33.9936 25.2597 35.5257 24.2128 37.0186C17.3001 46.8761 12.6677 54.7335 12.6677 63.2272C12.6677 80.6497 26.7776 94.7735 44.1829 94.7735ZM42.632 3.21234C37.2181 14.0383 30.9019 22.8883 25.2711 30.7777C16.8241 42.6132 9.91992 52.2869 9.91992 63.2272C9.91992 82.1687 25.26 97.524 44.1829 97.524C63.1059 97.524 78.4459 82.1687 78.4459 63.2272C78.4459 52.4886 71.628 42.9964 63.3446 31.464C57.566 23.4188 51.0741 14.3806 45.6864 3.23359C45.1747 2.17506 44.6731 1.09752 44.1829 0C43.6754 1.09005 43.158 2.16053 42.632 3.21234Z" fill="#A7CBEC"/>
<path d="M30.453 79.5374C20.4592 79.5374 16.1924 74.9497 12.998 72.4847C18.5426 92.9582 39.6254 95.971 45.1699 96.5188C50.7144 97.0666 64.9521 90.2877 70.1544 84.0567C74.3162 79.0718 75.9042 69.4719 76.178 65.295C66.5265 60.8883 53.1786 65.295 47.9764 71.0467C43.4482 76.0532 40.4468 79.5374 30.453 79.5374Z" fill="#A7CBEC"/>
<path fill-rule="evenodd" clip-rule="evenodd" d="M60.4822 64.337C55.2867 65.6055 50.6531 68.1417 48.0582 71.0068C47.9908 71.0812 47.9237 71.1554 47.8569 71.2292C45.6779 73.6363 43.8208 75.6878 41.3157 77.1474C38.7314 78.6532 35.4629 79.5264 30.4471 79.5264C25.4283 79.5264 21.8445 78.3758 19.1137 76.9144C17.0308 75.7996 15.4433 74.5029 14.0991 73.405C13.7426 73.1138 13.4031 72.8366 13.0761 72.5804C15.8799 82.6793 22.4914 88.4876 29.1063 91.8427C35.7659 95.2204 42.4269 96.1101 45.2017 96.3839C46.5773 96.5196 48.5004 96.2016 50.6983 95.546C52.8944 94.8909 55.3581 93.901 57.8119 92.6988C62.7217 90.2935 67.5819 87.0437 70.1794 83.9366C72.2551 81.4538 73.6924 77.8163 74.645 74.2716C75.5901 70.7551 76.056 67.3378 76.1968 65.2474C71.3879 63.0703 65.6615 63.0724 60.4822 64.337ZM60.4496 64.2039C65.6641 62.9307 71.4428 62.9291 76.2969 65.1424L76.3399 65.162L76.3368 65.2092C76.1994 67.3033 75.7323 70.7546 74.7775 74.3072C73.8232 77.8583 72.3795 81.5187 70.2847 84.0245C67.669 87.1532 62.7887 90.4133 57.8723 92.8219C55.4131 94.0266 52.9423 95.0196 50.7375 95.6773C48.5347 96.3344 46.5908 96.6587 45.1882 96.5203C42.4069 96.2459 35.7262 95.354 29.0442 91.9649C22.3606 88.575 15.6736 82.6854 12.8892 72.4177L12.8359 72.2212L12.9973 72.3456C13.3787 72.6395 13.7744 72.9627 14.1924 73.3041C15.5353 74.4008 17.1086 75.6858 19.1785 76.7935C21.8896 78.2444 25.4511 79.3894 30.4471 79.3894C35.4462 79.3894 38.689 78.5192 41.2466 77.029C43.733 75.5803 45.5771 73.5432 47.7614 71.1303C47.8261 71.0588 47.8912 70.987 47.9565 70.9148C50.5748 68.0238 55.2358 65.4769 60.4496 64.2039Z" fill="#A7CBEC"/>
<defs>
<radialGradient id="paint0_radial_3539_5112" cx="0" cy="0" r="1" gradientUnits="userSpaceOnUse" gradientTransform="translate(42.2584 97.5678) rotate(90) scale(8.21789 40.2838)">
<stop stop-color="white"/>
<stop offset="1" stop-color="white" stop-opacity="0"/>
</radialGradient>
</defs>
</svg>
